<?xml version="1.0"?><svg viewBox="0 0 512 512" xmlns="http://www.w3.org/2000/svg"><title/><g id="Pomeranian"><path d="M463.5172,226.9671a6.4013,6.4013,0,0,0-3.73-4.9375c-17.0937-7.62-31.6234-19.8609-39.2016-26.9468l19.3688-11.6891a6.4,6.4,0,0,0-.3828-11.1719c-39.6438-20.3687-63.92-57.4078-69.1766-66.0109,1.7939-13.494.2024-27.4132-3.5531-40.4421a127.5062,127.5062,0,0,0-12.7182-29.238c-2.3735-4.0352-4.89-7.6736-9.2259-9.7589a17.7065,17.7065,0,0,0-13.084-.8579c-18.4016,6.0059-33.985,15.0977-46.4506,26.9719a68.4551,68.4551,0,0,0-8.9416-.5922H235.57a68.4891,68.4891,0,0,0-8.9348.5914C214.1672,41.01,198.5826,31.92,180.1828,25.914a17.7063,17.7063,0,0,0-13.0831.8584c-4.3349,2.085-6.8561,5.7291-9.2237,9.7584a127.7168,127.7168,0,0,0-12.7183,29.238c-3.7556,13.029-5.3468,26.9478-3.5546,40.4421-5.2578,8.6031-29.5328,45.6422-69.1765,66.0109a6.4,6.4,0,0,0-.3829,11.1719l19.3688,11.6891c-7.5781,7.0859-22.1078,19.3265-39.2,26.9468a6.4,6.4,0,0,0-1.5359,10.725l34.7015,29.4516c-1.2843,20.7-3.1781,128.3578,88.475,194.38a6.4,6.4,0,0,0,8.4391-.8469l11.764-12.7172c9.0376,10.0985,30.1376,31.0141,59.4469,43.4344.1475.0625.3.0883.4492.1391.1438.0492.2838.0949.4309.1335a6.0136,6.0136,0,0,0,3.2348,0c.1461-.0387.2851-.084.4281-.1325.15-.0511.3027-.0773.4508-.14,29.3078-12.42,50.4078-33.3359,59.4469-43.4344l11.7625,12.7156a6.4,6.4,0,0,0,8.439.8485c91.6531-66.0219,89.761-173.68,88.4766-194.38l34.7015-29.4516A6.4049,6.4049,0,0,0,463.5172,226.9671Zm-47.67,27.5953a6.3993,6.3993,0,0,0-2.2156,5.6079c.1312,1.1468,11.8593,113.7109-78.4266,182.6609l-12.7781-13.8125a6.4062,6.4062,0,0,0-9.77.4406c-.2243.293-22.4315,28.6563-56.6563,44.0688-34.2262-15.4125-56.432-43.7758-56.6562-44.0688a6.4078,6.4078,0,0,0-9.77-.4422l-12.7781,13.8141C86.7,374.0031,98.2406,261.3124,98.37,260.164a6.4092,6.4092,0,0,0-2.2172-5.6016L66.3656,229.2812A172.094,172.094,0,0,0,106.4719,198.17a6.4011,6.4011,0,0,0-1.4125-9.8016l-16.986-10.2516c25.2431-15.3445,46.8289-37.4772,62.6813-62.3568,1.6827-2.6409,4.3847-6.0029,3.8266-9.3088-1.6172-9.5953-3.2829-35.2719,16.12-66.3906a4.7957,4.7957,0,0,1,5.5109-1.9781,112.0334,112.0334,0,0,1,35.3406,18.5949A68.4877,68.4877,0,0,0,200.77,61.7812a6.4,6.4,0,1,0,6.4969,11.0281A55.8218,55.8218,0,0,1,235.57,65.0937h40.8516a55.8218,55.8218,0,0,1,28.3031,7.7156,6.4706,6.4706,0,0,0,8.7625-2.2656,6.4,6.4,0,0,0-2.2656-8.7625,68.493,68.493,0,0,0-10.7785-5.102,112.01,112.01,0,0,1,35.341-18.5964,4.8026,4.8026,0,0,1,5.514,1.9781c19.4016,31.1172,17.736,56.7953,16.1188,66.3906-.51,3.0229,1.6236,5.797,3.1435,8.2273,2.3879,3.8181,4.94,7.5347,7.6,11.168a211.495,211.495,0,0,0,30.198,33.2856,177.8259,177.8259,0,0,0,25.5666,18.9847l-16.9859,10.2516a6.4009,6.4009,0,0,0-1.4125,9.8016,172.077,172.077,0,0,0,40.1078,31.1109Z"/><path d="M216.7344,171.514c-9.4911,0-6.1839,13.01-3.6158,18.0841a26.3053,26.3053,0,0,0,16.847,13.5182v8.8946c0,14.3844,11.32,26.425,25.2344,26.8422a26.1474,26.1474,0,0,0,18.9234-7.3375,25.8251,25.8251,0,0,0,7.9032-18.6813v-9.718a26.32,26.32,0,0,0,17.4139-14.704c1.5012-3.3827,2.8776-8.0691,2.0738-11.7831a6.4548,6.4548,0,0,0-8.7476-4.6122c-4.2007,1.7755-3.3916,5.6648-4.346,9.2756a13.1976,13.1976,0,0,1-25.4955.1175,9.9653,9.9653,0,0,0,.8936-.91l11.13-14.23a9.9315,9.9315,0,0,0-7.8234-16.0516H244.8672a9.9307,9.9307,0,0,0-7.8235,16.05l11.13,14.2328a9.8986,9.8986,0,0,0,.8946.91,13.1974,13.1974,0,0,1-25.7535-1.3566C222.6491,175.9927,222.1115,171.514,216.7344,171.514Zm39.2621,23.4418a26.0293,26.0293,0,0,0,13.23,8.16v9.718a13.3741,13.3741,0,0,1-13.6422,13.225c-7.0688-.2125-12.8188-6.514-12.8188-14.0484v-8.8946A26.032,26.032,0,0,0,255.9965,194.9558Z"/><path d="M207.2318,156.5476a14.4163,14.4163,0,0,0,15.84-14.33V132.0788a14.4166,14.4166,0,0,0-15.84-14.3293c-7.4806.73-12.96,7.4559-12.96,14.9715v8.8547C194.2713,149.0921,199.7512,155.8171,207.2318,156.5476Z"/><path d="M301.8818,156.5476a14.4163,14.4163,0,0,0,15.8395-14.33V132.0788A14.4166,14.4166,0,0,0,301.8818,117.75c-7.4806.73-12.9605,7.4559-12.9605,14.9715v8.8547C288.9213,149.0921,294.4012,155.8171,301.8818,156.5476Z"/><path d="M354.05,257.07a10.1375,10.1375,0,0,0-11.5375.4906c-18.2116,13.6774-41.5157,19.9546-63.8365,22.4756-25.3743,2.866-51.8876,1.2454-76.3433-6.3719-11.66-3.6319-23.0513-8.7417-32.8546-16.1037a10.1659,10.1659,0,0,0-16.1062,10.0359,129.12,129.12,0,0,0,45.7875,75.6953,6.3913,6.3913,0,0,0,7.0515.6438l14.2422-7.6906a99.1,99.1,0,0,0,31.8844,36.7968,6.4577,6.4577,0,0,0,7.3188-.0015,99.0767,99.0767,0,0,0,31.8828-36.7953l14.2422,7.6906a6.4,6.4,0,0,0,7.0515-.6438A129.1024,129.1024,0,0,0,358.62,267.5984,10.0673,10.0673,0,0,0,354.05,257.07Zm-45.9969,73.5453L291.4875,321.67a6.4142,6.4142,0,0,0-9.1031,3.58c-.0688.2016-6.7735,19.2954-26.3875,34.5907-19.6141-15.2953-26.3188-34.3875-26.3813-34.5735a6.4043,6.4043,0,0,0-3.7172-3.9187,6.5009,6.5009,0,0,0-5.3921.3219l-16.5657,8.9453a116.1676,116.1676,0,0,1-36.5156-58.9063c19.7631,12.721,43.4567,18.8817,66.6341,21.2712,25.2874,2.6071,51.4482.943,75.9328-6.09a130.0442,130.0442,0,0,0,34.5769-15.1816A116.1744,116.1744,0,0,1,308.0531,330.6156Z"/></g></svg>